<svg id="objects" xmlns="http://www.w3.org/2000/svg" viewBox="0 0 3300 2200"><defs><style>.cls-1{fill:#005f8d;}</style></defs><path class="cls-1" d="M2381.7,971.49c-12.49,198.89-98.39,381.33-241.49,519.68,25.06-44.3,48.11-89.93,67.15-137.12,34.11-83.89,56-173.24,61.5-262.21,5.68-92.39-2.09-187.8-38.11-273.75-29-70.26-94.14-182.35-236.17-182.35-184,0-296.26,195.63-361.48,296.94-75.49-101.86-208.18-282.41-371.63-279.25-115.9,2.25-185.07,121.52-209,225.85-9.33,39.07-13.33,79.64-13.64,120-6.13,343.8,243.62,628.27,508.7,820.36,24,17.41,48.45,34.37,73.35,50.57,5,3.23,10.06,6.45,15.15,9.6-116.29-33.64-225.78-88.61-327.07-154.87C1045.11,1550.73,861.17,1288.66,855,965.2c-1.2-83.66,12.32-167.28,44-245.37,58.06-146.9,185.73-263.56,348.22-274.67,159.25-12.33,295.16,74.93,391.65,193.86q22.32-25.86,47.23-49.58c61.66-58.37,136.83-104.57,220.9-122.54,99.13-21.63,204.5-2.31,287.62,56.51C2335.83,623,2392.56,805,2381.7,971.49Z"/></svg>