<svg id="visual" viewBox="0 0 540 960" width="540" height="960" xmlns="http://www.w3.org/2000/svg" xmlns:xlink="http://www.w3.org/1999/xlink" version="1.1"><path d="M0 193L23 203L47 212L70 212L94 183L117 135L141 193L164 174L188 193L211 203L235 135L258 164L282 193L305 203L329 174L352 222L376 164L399 135L423 174L446 135L470 193L493 183L517 222L540 193L540 0L517 0L493 0L470 0L446 0L423 0L399 0L376 0L352 0L329 0L305 0L282 0L258 0L235 0L211 0L188 0L164 0L141 0L117 0L94 0L70 0L47 0L23 0L0 0Z" fill="#00bcd4"></path><path d="M0 299L23 327L47 347L70 299L94 270L117 279L141 318L164 289L188 308L211 299L235 279L258 308L282 289L305 337L329 308L352 337L376 251L399 222L423 251L446 212L470 337L493 318L517 299L540 337L540 191L517 220L493 181L470 191L446 133L423 172L399 133L376 162L352 220L329 172L305 201L282 191L258 162L235 133L211 201L188 191L164 172L141 191L117 133L94 181L70 210L47 210L23 201L0 191Z" fill="#00afec"></path><path d="M0 548L23 635L47 558L70 558L94 606L117 596L141 567L164 510L188 519L211 558L235 529L258 510L282 577L305 644L329 577L352 606L376 577L399 577L423 596L446 606L470 529L493 644L517 500L540 577L540 335L517 297L493 316L470 335L446 210L423 249L399 220L376 249L352 335L329 306L305 335L282 287L258 306L235 277L211 297L188 306L164 287L141 316L117 277L94 268L70 297L47 345L23 325L0 297Z" fill="#009cfa"></path><path d="M0 721L23 769L47 673L70 721L94 702L117 711L141 673L164 683L188 615L211 702L235 635L258 654L282 702L305 798L329 721L352 721L376 721L399 750L423 731L446 759L470 683L493 769L517 644L540 731L540 575L517 498L493 642L470 527L446 604L423 594L399 575L376 575L352 604L329 575L305 642L282 575L258 508L235 527L211 556L188 517L164 508L141 565L117 594L94 604L70 556L47 556L23 633L0 546Z" fill="#0084ff"></path><path d="M0 961L23 961L47 961L70 961L94 961L117 961L141 961L164 961L188 961L211 961L235 961L258 961L282 961L305 961L329 961L352 961L376 961L399 961L423 961L446 961L470 961L493 961L517 961L540 961L540 729L517 642L493 767L470 681L446 757L423 729L399 748L376 719L352 719L329 719L305 796L282 700L258 652L235 633L211 700L188 613L164 681L141 671L117 709L94 700L70 719L47 671L23 767L0 719Z" fill="#0066ff"></path></svg>